<svg viewBox="-84 0 512 512" xmlns="http://www.w3.org/2000/svg"><path d="m309.882812 291.246094c-.101562-.230469-.207031-.457032-.328124-.675782-.554688-1.167968-1.113282-2.335937-1.683594-3.492187-9.074219-18.46875-19.683594-34.949219-31.433594-49.058594-.347656-.539062-.757812-1.03125-1.226562-1.464843-16.421876-19.355469-35.027344-34.105469-54.804688-43.191407-1.300781-6.570312-1.96875-13.265625-1.96875-19.960937 0-6.757813.667969-13.53125 1.988281-20.136719l4.414063-22.171875c.808594-4.0625-1.832032-8.011719-5.894532-8.816406-4.0625-.8125-8.007812 1.828125-8.816406 5.890625l-4.414062 22.164062c-1.511719 7.566407-2.277344 15.328125-2.277344 23.070313 0 4.632812.277344 9.265625.824219 13.867187-10.328125-3.074219-20.894531-4.652343-31.46875-4.761719-.058594 0-.117188-.003906-.175781-.003906-.332032-.019531-.65625-.027344-.980469-.027344s-.652344.007813-.984375.027344c-.0625 0-.128906.003906-.191406.007813-10.5625.109375-21.113282 1.683593-31.429688 4.753906 1.464844-12.277344.976562-24.652344-1.46875-36.929687l-13.535156-67.949219c-.046875-.246094.074218-.488281.296875-.589844l23.707031-10.578125c9.628906-4.3125 16.4375-13.480469 17.757812-23.933594l.476563-3.730468h10.738281l.472656 3.738281c1.339844 10.453125 8.144532 19.617187 17.765626 23.925781l23.699218 10.578125c.21875.097656.347656.339844.300782.578125l-3.421876 17.195312c-.808593 4.066407 1.828126 8.015626 5.890626 8.820313 4.0625.808594 8.011718-1.828125 8.820312-5.890625l3.421875-17.191406c1.429687-7.152344-2.226563-14.230469-8.894531-17.207032l-23.691406-10.578124c-4.878907-2.183594-8.332032-6.832032-9.007813-12.128907l-1.121094-8.820312c-.199219-1.539063-.777343-2.941407-1.625-4.136719v-21.1875c-.003906-6.203125-5.046875-11.25-11.25-11.25h-13.457031c-6.203125 0-11.246094 5.046875-11.246094 11.25v21.179688c-.851562 1.199218-1.433594 2.605468-1.628906 4.144531l-1.125 8.824219c-.667969 5.292968-4.121094 9.941406-9 12.125l-23.703125 10.578124c-6.644531 2.972657-10.300781 10.039063-8.890625 17.199219l13.535156 67.964844c2.660156 13.34375 2.664063 26.808594.03125 40.089844-19.78125 9.082031-38.386718 23.832031-54.804687 43.183593-.480469.441407-.90625.945313-1.257813 1.496094-11.742187 14.105469-22.339844 30.574219-31.414062 49.027344-23.160156 47.121094-35.402344 103.609375-35.402344 163.351562 0 4.144532 3.359375 7.5 7.5 7.5h156.632812v10.546876h-11.121093c-19.367188 0-35.117188 15.753906-35.117188 35.117187v.921875c0 4.144531 3.355469 7.5 7.5 7.5h92.480469c4.144531 0 7.5-3.355469 7.5-7.5v-.921875c0-19.363281-15.753906-35.117187-35.117188-35.117187h-11.125v-10.546876h156.644532c4.140625 0 7.5-3.355468 7.5-7.5 0-57.980468-11.539063-112.898437-33.394532-159.167968zm-141.222656-276.246094h5.949219v13.554688h-5.949219zm40.613282 482h-75.277344c2.734375-7.871094 10.226562-13.539062 19.015625-13.539062h18.542969c.027343 0 .050781.003906.078124.003906.027344 0 .050782-.003906.078126-.003906h18.546874c8.792969 0 16.28125 5.667968 19.015626 13.539062zm55.210937-54.085938h-47.320313c-.050781-12.535156-.230468-24.921874-.535156-37.089843h46.421875c.8125 12.160156 1.296875 24.546875 1.433594 37.089843zm-184.265625-37.089843h5.433594c4.144531 0 7.5-3.355469 7.5-7.5 0-4.140625-3.355469-7.5-7.5-7.5h-4.246094c1.152344-12.679688 2.667969-25.074219 4.539062-37.082031h42.832032c-.699219 12.027343-1.265625 24.414062-1.691406 37.082031h-13.183594c-4.140625 0-7.5 3.359375-7.5 7.5 0 4.144531 3.359375 7.5 7.5 7.5h12.738281c-.300781 12.167969-.480469 24.554687-.53125 37.089843h-47.320313c.136719-12.542968.617188-24.929687 1.429688-37.089843zm-53.351562-52.082031h43.917968c-1.828125 12.035156-3.3125 24.421874-4.433594 37.082031h-46.988281c1.894531-12.671875 4.398438-25.058594 7.503907-37.082031zm18.234374-52.085938h36.351563c-3.125 11.820312-5.859375 24.21875-8.179687 37.085938h-42.167969c3.964843-12.871094 8.628906-25.269532 13.996093-37.085938zm31.640626-52.097656h22.734374c-2.003906 4.460937-3.949218 9.128906-5.824218 14-2.835938 7.355468-5.480469 15.074218-7.933594 23.097656h-33.261719c7.273438-13.746094 15.433594-26.179688 24.285157-37.097656zm125.421874 193.355468h-61.058593c.050781-12.523437.238281-24.910156.542969-37.089843h59.972656c.308594 12.179687.492187 24.566406.542968 37.089843zm-60.070312-52.089843c.4375-12.664063 1.011719-25.054688 1.714844-37.082031h55.652344c.703124 12.027343 1.277343 24.417968 1.714843 37.082031zm2.679688-52.082031c.898437-12.898438 1.957031-25.304688 3.167968-37.085938h47.386719c1.210937 11.78125 2.269531 24.1875 3.167969 37.085938zm-28.734376-89.183594h23.753907c-.839844 4.851562-1.667969 10.046875-2.480469 15.613281-1.003906 6.855469-1.941406 14.035156-2.816406 21.484375h-33.066406c1.953124-6.109375 4.027343-12.019531 6.21875-17.703125 2.667968-6.925781 5.472656-13.394531 8.390624-19.394531zm119.582032 19.394531c2.191406 5.683594 4.265625 11.59375 6.222656 17.703125h-33.070312c-.875-7.449219-1.8125-14.628906-2.8125-21.484375-.816407-5.566406-1.644532-10.761719-2.484376-15.613281h23.753907c2.917969 6 5.722656 12.46875 8.390625 19.394531zm-80.59375-19.394531h33.214844c1.25 6.964844 2.5 14.847656 3.722656 23.78125.59375 4.320312 1.160156 8.761718 1.703125 13.316406h-44.066407c.542969-4.554688 1.113282-8.996094 1.703126-13.316406 1.222656-8.933594 2.472656-16.816406 3.722656-23.78125zm2.984375-15c6.210937-28.0625 11.882812-35.160156 13.625-36.757813 1.742187 1.597657 7.410156 8.695313 13.625 36.757813zm42.609375 0c-2.75-13.066406-5.59375-22.925782-8.460938-30.339844 9.398438 6.15625 18.519532 16.425781 26.945313 30.339844zm-57.96875 0h-18.488282c8.425782-13.914063 17.546876-24.183594 26.945313-30.339844-2.867187 7.414062-5.710937 17.273438-8.457031 30.339844zm-9.792969 67.097656c-1.195313 11.808594-2.246094 24.203125-3.132813 37.085938h-41.214843c2.398437-12.914063 5.222656-25.316407 8.460937-37.085938zm77.550781 0h35.890625c3.234375 11.769531 6.058594 24.171875 8.460938 37.085938h-41.21875c-.886719-12.882813-1.9375-25.277344-3.132813-37.085938zm51.410156 0h36.351563c5.363281 11.816406 10.03125 24.214844 13.992187 37.085938h-42.167968c-2.320313-12.867188-5.054688-25.261719-8.175782-37.085938zm-4.269531-15c-2.453125-8.023438-5.097656-15.742188-7.933593-23.097656-1.875-4.875-3.820313-9.539063-5.824219-14h22.734375c8.851562 10.917968 17.011718 23.347656 24.285156 37.097656zm-21.167969-52.097656c-5.105468-9.421875-10.527343-17.636719-16.21875-24.582032 11.476563 6.097657 22.492188 14.386719 32.808594 24.582032zm-129.496093 0h-16.589844c10.320313-10.195313 21.335937-18.488282 32.8125-24.589844-5.691406 6.949219-11.117187 15.164062-16.222656 24.589844zm109.300781 156.265625c-.429688-12.667969-.996094-25.054688-1.695312-37.082031h42.832031c1.875 12.007812 3.390625 24.402343 4.542969 37.082031zm56.296875-37.082031h43.921875c3.105469 12.023437 5.609375 24.410156 7.507812 37.082031h-46.992187c-1.125-12.660157-2.609375-25.046875-4.4375-37.082031zm-255.066406 52.082031h47.773437c-.796875 12.171875-1.265625 24.558593-1.402344 37.089843h-48.722656c.222656-12.554687 1.019532-24.933593 2.351563-37.089843zm262.0625 37.089843c-.132813-12.53125-.605469-24.917968-1.402344-37.089843h47.777344c1.335937 12.15625 2.128906 24.535156 2.355469 37.089843zm0 0"/></svg>