<svg height="512pt" viewBox="-20 0 512 512" width="512pt" xmlns="http://www.w3.org/2000/svg"><path d="m464.078125 106.839844h-188.007813c-4.199218 0-7.605468 3.40625-7.605468 7.605468v182.351563c0 31.425781 24.359375 57.265625 55.183594 59.632813l-7.800782 96.800781c-1.214844 15.089843 3.976563 30.128906 14.246094 41.257812 10.265625 11.128907 24.839844 17.511719 39.980469 17.511719 15.144531 0 29.714843-6.382812 39.984375-17.511719 10.269531-11.125 15.460937-26.164062 14.242187-41.257812l-2.027343-25.179688c-.339844-4.183593-3.996094-7.300781-8.191407-6.96875-4.183593.339844-7.304687 4.003907-6.96875 8.191407l2.03125 25.179687c.886719 11.03125-2.757812 21.589844-10.265625 29.722656-7.503906 8.136719-17.734375 12.617188-28.804687 12.617188-11.066407 0-21.296875-4.480469-28.804688-12.617188-7.507812-8.132812-11.148437-18.691406-10.261719-29.722656l8.445313-104.839844c.171875-2.113281-.550781-4.203125-1.988281-5.765625-1.441406-1.558594-3.464844-2.445312-5.589844-2.445312h-3.601562c-24.589844 0-44.597657-20.007813-44.597657-44.601563v-24.789062h172.800781v24.789062c0 24.589844-20.007812 44.601563-44.601562 44.601563h-3.601562c-2.121094 0-4.148438.886718-5.585938 2.445312-1.441406 1.5625-2.164062 3.652344-1.992188 5.765625l4.027344 49.964844c.335938 4.1875 4.003906 7.3125 8.191406 6.96875 4.183594-.335937 7.304688-4.003906 6.964844-8.191406l-3.375-41.925781c30.824219-2.367188 55.179688-28.207032 55.179688-59.632813v-182.351563c0-4.199218-3.402344-7.605468-7.605469-7.605468zm-7.601563 116.425781h-16.128906v-101.214844h16.128906zm-47.460937 0v-101.214844h16.125v101.214844zm-31.335937 0v-101.214844h16.125v101.214844zm-31.335938 0v-101.214844h16.128906v101.214844zm-31.335938 0v-101.214844h16.128907v101.214844zm-15.207031-101.214844v101.214844h-16.125v-101.214844zm-16.125 134.75v-18.328125h172.800781v18.328125zm0 0"/><path d="m201.800781 108.824219h-9.878906v-71.984375c0-20.3125-16.523437-36.839844-36.839844-36.839844h-59.117187c-20.3125 0-36.839844 16.527344-36.839844 36.839844v34.996094c0 4.199218 3.40625 7.605468 7.605469 7.605468s7.601562-3.40625 7.601562-7.605468v-34.996094c0-11.929688 9.703125-21.632813 21.632813-21.632813h59.117187c11.929688 0 21.632813 9.703125 21.632813 21.632813v71.984375h-102.382813v-6.570313c0-4.199218-3.402343-7.605468-7.601562-7.605468s-7.605469 3.40625-7.605469 7.605468v6.570313h-9.878906c-27.152344 0-49.246094 22.089843-49.246094 49.246093v304.683594c0 27.15625 22.09375 49.246094 49.246094 49.246094h152.554687c27.15625 0 49.246094-22.09375 49.246094-49.246094v-304.683594c0-27.15625-22.089844-49.246093-49.246094-49.246093zm-152.554687 15.207031h152.554687c16.15625 0 29.707031 11.316406 33.171875 26.433594h-218.898437c3.464843-15.117188 17.019531-26.433594 33.171875-26.433594zm152.554687 372.761719h-152.554687c-18.769532 0-34.039063-15.269531-34.039063-34.039063v-297.078125h220.632813v297.078125c0 18.769532-15.269532 34.039063-34.039063 34.039063zm0 0"/><path d="m184.320312 200.648438h-117.589843c-4.199219 0-7.605469 3.40625-7.605469 7.605468v207.433594c0 4.199219 3.40625 7.601562 7.605469 7.601562h117.585937c4.199219 0 7.605469-3.402343 7.605469-7.601562v-207.433594c0-4.199218-3.402344-7.605468-7.601563-7.605468zm-7.605468 207.433593h-102.382813v-192.226562h102.382813zm0 0"/><path d="m97.5625 353.589844c0 4.199218 3.402344 7.601562 7.601562 7.601562 4.199219 0 7.605469-3.402344 7.605469-7.601562 0-4.878906 1.199219-6.929688 3.015625-10.035156 2.269532-3.882813 5.09375-8.71875 5.09375-17.710938 0-8.996094-2.824218-13.828125-5.09375-17.714844-1.816406-3.105468-3.015625-5.15625-3.015625-10.035156 0-4.875 1.199219-6.925781 3.015625-10.03125 2.269532-3.882812 5.09375-8.714844 5.09375-17.710938 0-4.199218-3.402344-7.601562-7.601562-7.601562-4.199219 0-7.605469 3.402344-7.605469 7.601562 0 4.875-1.199219 6.929688-3.015625 10.035157-2.269531 3.878906-5.09375 8.710937-5.09375 17.707031 0 9 2.824219 13.832031 5.09375 17.714844 1.816406 3.105468 3.015625 5.15625 3.015625 10.035156 0 4.875-1.199219 6.929688-3.015625 10.035156-2.269531 3.882813-5.09375 8.714844-5.09375 17.710938zm0 0"/><path d="m130.167969 353.589844c0 4.199218 3.40625 7.601562 7.605469 7.601562 4.199218 0 7.605468-3.402344 7.605468-7.601562 0-4.878906 1.199219-6.929688 3.015625-10.035156 2.269531-3.882813 5.09375-8.71875 5.09375-17.710938 0-8.996094-2.824219-13.828125-5.09375-17.714844-1.816406-3.105468-3.015625-5.15625-3.015625-10.035156 0-4.875 1.199219-6.925781 3.015625-10.03125 2.269531-3.882812 5.09375-8.714844 5.09375-17.710938 0-4.199218-3.40625-7.601562-7.605469-7.601562-4.199218 0-7.601562 3.402344-7.601562 7.601562 0 4.875-1.199219 6.929688-3.015625 10.035157-2.269531 3.878906-5.097656 8.710937-5.097656 17.707031 0 9 2.828125 13.832031 5.097656 17.714844 1.816406 3.105468 3.015625 5.15625 3.015625 10.035156 0 4.875-1.199219 6.929688-3.015625 10.035156-2.269531 3.882813-5.097656 8.714844-5.097656 17.710938zm0 0"/></svg>